<svg xmlns="http://www.w3.org/2000/svg" width="497" height="518" viewBox="2674 1410 497 518" xmlns:c2pa="http://c2pa.org/manifest"><metadata><c2pa:manifest>AAAWgmp1bWIAAAAeanVtZGMycGEAEQAQgAAAqgA4m3EDYzJwYQAAABZcanVtYgAAAEdqdW1kYzJtYQARABCAAACqADibcQN1cm46YzJwYTpmNzRhZTI5MC04YTQ2LTQxYzYtODA3NS1iNjA0OTlkYWI3MTMAAAADl2p1bWIAAAApanVtZGMyYXMAEQAQgAAAqgA4m3EDYzJwYS5hc3NlcnRpb25zAAAAALxqdW1iAAAARGp1bWRjYm9yABEAEIAAAKoAOJtxE2MycGEuaW5ncmVkaWVudC52MwAAAAAYYzJzaK4ROVy3f/4aaqBCBr4s/14AAABwY2JvcqNpZGM6Zm9ybWF0bWltYWdlL3N2Zyt4bWxqaW5zdGFuY2VJRHgseG1wOmlpZDo5NTIxYTEzNy1lNjljLTRjNzktOWM4ZS1jMzZmYzkzYWVmZTNscmVsYXRpb25zaGlwaHBhcmVudE9mAAAB4mp1bWIAAABBanVtZGNib3IAEQAQgAAAqgA4m3ETYzJwYS5hY3Rpb25zLnYyAAAAABhjMnNocQJ/amESUZwQUdlhJDwXjAAAAZljYm9yomdhY3Rpb25zgqJmYWN0aW9ua2MycGEub3BlbmVkanBhcmFtZXRlcnOha2luZ3JlZGllbnRzgaJjdXJseC1zZWxmI2p1bWJmPWMycGEuYXNzZXJ0aW9ucy9jMnBhLmluZ3JlZGllbnQudjNkaGFzaFggYcnl5/NxRACNH9j5UjSqw9IeKv2XQEpf7YjnNLMD85ykZmFjdGlvbngdY29tLmFudGhyb3BpYy5jbGF1ZGUucHJvdmlkZWRqcGFyYW1ldGVyc6F4H2NvbS5hbnRocm9waWMub3JpZ2luLWNvbmZpZGVuY2VndW5rbm93bmtkZXNjcmlwdGlvbnhmQ2xhdWRlIHByb3ZpZGVkIHRoaXMgZmlsZSBhdCB0aGUgcmVxdWVzdCBvZiBhIHVzZXIgYW5kIG1heSBoYXZlIGNyZWF0ZWQgb3IgbW9kaWZpZWQgdGhlIGZpbGUgY29udGVudHMubXNvZnR3YXJlQWdlbnShZG5hbWVmQ2xhdWRlcmFsbEFjdGlvbnNJbmNsdWRlZPUAAADIanVtYgAAAEBqdW1kY2JvcgARABCAAACqADibcRNjMnBhLmhhc2guZGF0YQAAAAAYYzJzaKLsu5t5HhmsYk1Qd01BpWcAAACAY2JvcqVjYWxnZnNoYTI1NmNwYWRNAAAAAAAAAAAAAAAAAGRoYXNoWCCcfhkwMkst8UiY4a8Oo2P2dKDOtVU9CfYNkRWoosRRSmRuYW1lbmp1bWJmIG1hbmlmZXN0amV4Y2x1c2lvbnOBomVzdGFydBicZmxlbmd0aBkeBAAAAj5qdW1iAAAAJ2p1bWRjMmNsABEAEIAAAKoAOJtxA2MycGEuY2xhaW0udjIAAAACD2Nib3KlY2FsZ2ZzaGEyNTZpc2lnbmF0dXJleE1zZWxmI2p1bWJmPS9jMnBhL3VybjpjMnBhOmY3NGFlMjkwLThhNDYtNDFjNi04MDc1LWI2MDQ5OWRhYjcxMy9jMnBhLnNpZ25hdHVyZWppbnN0YW5jZUlEeCx4bXA6aWlkOmMzZTlkMGYyLWQwNjEtNGQwZC05YjcwLTI0Y2Y4MGY4MzExOHJjcmVhdGVkX2Fzc2VydGlvbnODomN1cmx4LXNlbGYjanVtYmY9YzJwYS5hc3NlcnRpb25zL2MycGEuaW5ncmVkaWVudC52M2RoYXNoWCBhyeXn83FEAI0f2PlSNKrD0h4q/ZdASl/tiOc0swPznKJjdXJseCpzZWxmI2p1bWJmPWMycGEuYXNzZXJ0aW9ucy9jMnBhLmFjdGlvbnMudjJkaGFzaFggquLAlh8VzZZ880mZxAbi1Cg+mqpZj8+opxVXlv3DcZ6iY3VybHgpc2VsZiNqdW1iZj1jMnBhLmFzc2VydGlvbnMvYzJwYS5oYXNoLmRhdGFkaGFzaFgg0n9D0zw4I5lVvWR6U0UZd6wBx+cjVCUXbgLHvxVIwr10Y2xhaW1fZ2VuZXJhdG9yX2luZm+jZG5hbWVvQW50aHJvcGljIEZpbGVzZ3ZlcnNpb25lMS4wLjBrc3BlY1ZlcnNpb25lMi40LjAAABA4anVtYgAAAChqdW1kYzJjcwARABCAAACqADibcQNjMnBhLnNpZ25hdHVyZQAAABAIY2JvctKEWQISogEmGCFZAgowggIGMIIBjaADAgECAhRA5aAK7sI50L64g/oGQgU9Z1UTADAKBggqhkjOPQQDAzBJMRcwFQYDVQQKEw5BbnRocm9waWMsIFBCQzEuMCwGA1UEAxMlQW50aHJvcGljIENvbnRlbnQgQ3JlZGVudGlhbHMgUm9vdCBDQTAeFw0yNjA4MDcxODQzNTZaFw0yODA4MDYxOTQzNTZaMEQxFzAVBgNVBAoTDkFudGhyb3BpYywgUEJDMSkwJwYDVQQDEyBBbnRocm9waWMgQ2xhdWRlIENvbnRlbnQgU2lnbmluZzBZMBMGByqGSM49AgEGCCqGSM49AwEHA0IABJh6CmvLUBgFFNU0vUKlOVtE6djd17L5SuwX0LemFisBM3dkd/3cyjxFA3Qo5S46fX0/ihY0VZ7mfb9KF703t5OjWDBWMA4GA1UdDwEB/wQEAwIHgDAVBgNVHSUEDjAMBgorBgEEAYPoXgIBMAwGA1UdEwEB/wQCMAAwHwYDVR0jBBgwFoAUzlHiBIFOZFsj+OPEz5o+nMHXXMIwCgYIKoZIzj0EAwMDZwAwZAIwMXMdFJ4BetLLVY7ORuE9noqbbAZOZn/aArXyTwFAZfKrPzxF2vPoJNf1+UCdg1XGAjBwX1zd9WGqYkqmL5SFqw1QySjr1zJfpJM9+1rdDwSPLMOPOjKuiXjoU/pUUeG9RwmhY3BhZFkNngAAAAAAAAAAAAAAAAAAAAAAAAAAAAAAAAAAAAAAAAAAAAAAAAAAAAAAAAAAAAAAAAAAAAAAAAAAAAAAAAAAAAAAAAAAAAAAAAAAAAAAAAAAAAAAAAAAAAAAAAAAAAAAAAAAAAAAAAAAAAAAAAAAAAAAAAAAAAAAAAAAAAAAAAAAAAAAAAAAAAAAAAAAAAAAAAAAAAAAAAAAAAAAAAAAAAAAAAAAAAAAAAAAAAAAAAAAAAAAAAAAAAAAAAAAAAAAAAAAAAAAAAAAAAAAAAAAAAAAAAAAAAAAAAAAAAAAAAAAAAAAAAAAAAAAAAAAAAAAAAAAAAAAAAAAAAAAAAAAAAAAAAAAAAAAAAAAAAAAAAAAAAAAAAAAAAAAAAAAAAAAAAAAAAAAAAAAAAAAAAAAAAAAAAAAAAAAAAAAAAAAAAAAAAAAAAAAAAAAAAAAAAAAAAAAAAAAAAAAAAAAAAAAAAAAAAAAAAAAAAAAAAAAAAAAAAAAAAAAAAAAAAAAAAAAAAAAAAAAAAAAAAAAAAAAAAAAAAAAAAAAAAAAAAAAAAAAAAAAAAAAAAAAAAAAAAAAAAAAAAAAAAAAAAAAAAAAAAAAAAAAAAAAAAAAAAAAAAAAAAAAAAAAAAAAAAAAAAAAAAAAAAAAAAAAAAAAAAAAAAAAAAAAAAAAAAAAAAAAAAAAAAAAAAAAAAAAAAAAAAAAAAAAAAAAAAAAAAAAAAAAAAAAAAAAAAAAAAAAAAAAAAAAAAAAAAAAAAAAAAAAAAAAAAAAAAAAAAAAAAAAAAAAAAAAAAAAAAAAAAAAAAAAAAAAAAAAAAAAAAAAAAAAAAAAAAAAAAAAAAAAAAAAAAAAAAAAAAAAAAAAAAAAAAAAAAAAAAAAAAAAAAAAAAAAAAAAAAAAAAAAAAAAAAAAAAAAAAAAAAAAAAAAAAAAAAAAAAAAAAAAAAAAAAAAAAAAAAAAAAAAAAAAAAAAAAAAAAAAAAAAAAAAAAAAAAAAAAAAAAAAAAAAAAAAAAAAAAAAAAAAAAAAAAAAAAAAAAAAAAAAAAAAAAAAAAAAAAAAAAAAAAAAAAAAAAAAAAAAAAAAAAAAAAAAAAAAAAAAAAAAAAAAAAAAAAAAAAAAAAAAAAAAAAAAAAAAAAAAAAAAAAAAAAAAAAAAAAAAAAAAAAAAAAAAAAAAAAAAAAAAAAAAAAAAAAAAAAAAAAAAAAAAAAAAAAAAAAAAAAAAAAAAAAAAAAAAAAAAAAAAAAAAAAAAAAAAAAAAAAAAAAAAAAAAAAAAAAAAAAAAAAAAAAAAAAAAAAAAAAAAAAAAAAAAAAAAAAAAAAAAAAAAAAAAAAAAAAAAAAAAAAAAAAAAAAAAAAAAAAAAAAAAAAAAAAAAAAAAAAAAAAAAAAAAAAAAAAAAAAAAAAAAAAAAAAAAAAAAAAAAAAAAAAAAAAAAAAAAAAAAAAAAAAAAAAAAAAAAAAAAAAAAAAAAAAAAAAAAAAAAAAAAAAAAAAAAAAAAAAAAAAAAAAAAAAAAAAAAAAAAAAAAAAAAAAAAAAAAAAAAAAAAAAAAAAAAAAAAAAAAAAAAAAAAAAAAAAAAAAAAAAAAAAAAAAAAAAAAAAAAAAAAAAAAAAAAAAAAAAAAAAAAAAAAAAAAAAAAAAAAAAAAAAAAAAAAAAAAAAAAAAAAAAAAAAAAAAAAAAAAAAAAAAAAAAAAAAAAAAAAAAAAAAAAAAAAAAAAAAAAAAAAAAAAAAAAAAAAAAAAAAAAAAAAAAAAAAAAAAAAAAAAAAAAAAAAAAAAAAAAAAAAAAAAAAAAAAAAAAAAAAAAAAAAAAAAAAAAAAAAAAAAAAAAAAAAAAAAAAAAAAAAAAAAAAAAAAAAAAAAAAAAAAAAAAAAAAAAAAAAAAAAAAAAAAAAAAAAAAAAAAAAAAAAAAAAAAAAAAAAAAAAAAAAAAAAAAAAAAAAAAAAAAAAAAAAAAAAAAAAAAAAAAAAAAAAAAAAAAAAAAAAAAAAAAAAAAAAAAAAAAAAAAAAAAAAAAAAAAAAAAAAAAAAAAAAAAAAAAAAAAAAAAAAAAAAAAAAAAAAAAAAAAAAAAAAAAAAAAAAAAAAAAAAAAAAAAAAAAAAAAAAAAAAAAAAAAAAAAAAAAAAAAAAAAAAAAAAAAAAAAAAAAAAAAAAAAAAAAAAAAAAAAAAAAAAAAAAAAAAAAAAAAAAAAAAAAAAAAAAAAAAAAAAAAAAAAAAAAAAAAAAAAAAAAAAAAAAAAAAAAAAAAAAAAAAAAAAAAAAAAAAAAAAAAAAAAAAAAAAAAAAAAAAAAAAAAAAAAAAAAAAAAAAAAAAAAAAAAAAAAAAAAAAAAAAAAAAAAAAAAAAAAAAAAAAAAAAAAAAAAAAAAAAAAAAAAAAAAAAAAAAAAAAAAAAAAAAAAAAAAAAAAAAAAAAAAAAAAAAAAAAAAAAAAAAAAAAAAAAAAAAAAAAAAAAAAAAAAAAAAAAAAAAAAAAAAAAAAAAAAAAAAAAAAAAAAAAAAAAAAAAAAAAAAAAAAAAAAAAAAAAAAAAAAAAAAAAAAAAAAAAAAAAAAAAAAAAAAAAAAAAAAAAAAAAAAAAAAAAAAAAAAAAAAAAAAAAAAAAAAAAAAAAAAAAAAAAAAAAAAAAAAAAAAAAAAAAAAAAAAAAAAAAAAAAAAAAAAAAAAAAAAAAAAAAAAAAAAAAAAAAAAAAAAAAAAAAAAAAAAAAAAAAAAAAAAAAAAAAAAAAAAAAAAAAAAAAAAAAAAAAAAAAAAAAAAAAAAAAAAAAAAAAAAAAAAAAAAAAAAAAAAAAAAAAAAAAAAAAAAAAAAAAAAAAAAAAAAAAAAAAAAAAAAAAAAAAAAAAAAAAAAAAAAAAAAAAAAAAAAAAAAAAAAAAAAAAAAAAAAAAAAAAAAAAAAAAAAAAAAAAAAAAAAAAAAAAAAAAAAAAAAAAAAAAAAAAAAAAAAAAAAAAAAAAAAAAAAAAAAAAAAAAAAAAAAAAAAAAAAAAAAAAAAAAAAAAAAAAAAAAAAAAAAAAAAAAAAAAAAAAAAAAAAAAAAAAAAAAAAAAAAAAAAAAAAAAAAAAAAAAAAAAAAAAAAAAAAAAAAAAAAAAAAAAAAAAAAAAAAAAAAAAAAAAAAAAAAAAAAAAAAAAAAAAAAAAAAAAAAAAAAAAAAAAAAAAAAAAAAAAAAAAAAAAAAAAAAAAAAAAAAAAAAAAAAAAAAAAAAAAAAAAAAAAAAAAAAAAAAAAAAAAAAAAAAAAAAAAAAAAAAAAAAAAAAAAAAAAAAAAAAAAAAAAAAAAAAAAAAAAAAAAAAAAAAAAAAAAAAAAAAAAAAAAAAAAAAAAAAAAAAAAAAAAAAAAAAAAAAAAAAAAAAAAAAAAAAAAAAAAAAAAAAAAAAAAAAAAAAAAAAAAAAAAAAAAAAAAAAAAAAAAAAAAAAAAAAAAAAAAAAAAAAAAAAAAAAAAAAAAAAAAAAAAAAAAAAAAAAAAAAAAAAAAAAAAAAAAAAAAAAAAAAAAAAAAAAAAAAAAAAAAAAAAAAAAAAAAAAAAAAAAAAAAAAAAAAAAAAAAAAAAAAAAAAAAAAAAAAAAAAAAAAAAAAAAAAAAAAAAAAAAAAAAAAAAAAAAAAAAAAAAAAAAAAAAAAAAAAAAAAAAAAAAAAAAAAAAAAAAAAAAAAAAAAAAAAAAAAAAAAAAAAAAAAAAAAAAAAAAAAAAAAAAAAAAAAAAAAAAAAAAAAAAAAAAAAAAAAAAAAAAAAAAAAAAAAAAAAAAAAAAAAAAAAAAAAAAAAAAAAAAAAAAAAAAAAAAAAAAAAAAAAAAAAAAAAAAAAAAAAAAAAAAAAAAAAAAAAAAAAAAAAAAAAAAAAAAAAAAAAAAAAAAAAAAAAAAAAAAAAAAAAAAAAAAAAAAAAAAAAAAAAAAAAAAAAAAAAAAAAAAAAAAAAAAAAAAAAAAAAAAAAAAAAAAAAAAAAAAAAAAAAAAAAAAAAAAAAAAAAAAAAAAAAAAAAAAAAAAAAAAAAAAAAAAAAAAAAAAAAAAAAAAAAAAAAAAAAAAAAAAAAAAAAAAAAAAAAAAAAAAAAAAAAAAAAAAAAAAAAAAAAAAAAAAAAAAAAAAAAAAAAAAAAAAAAAAAAAAAAAAAAAAAAAAAAAAAAAAAAAAAAAAAAAAAAAAAAAAAAAAAAAAAAAAAAAAAAAAAAAAAAAAAAAAAAAAAAAAAAAAAAAAAAAAAAAAAAAAAAAAAAAAAAAAAAAAAAAAAAAAAAAAAAAAAAAAAAAAAAAAAAAAAAAAAAAAAAAAAAAAAAAAAAAAAAAAAAAAAAAAAAAAAAAAAAAAAAAAAAAAAAAAAAAAAAAAAAAAAAAAAAAAAAAAAAAAAAAAAAAAAAAAAAAAAAAAAAAAAAAAAAAAAAAAAAAAAAAAAAAAAAAAAAAAAAAAAAAAAAAAAAAAAAAAAAAAAAAAAAAAAAAAAAAAAAAAAAAAAAAAAAAAAAAAAAAAAAAAAAAAAAAAAAAAAAAAAAAAAAAAAAAAAAAAAAAAAAAAAAAAAAAAAAAAAAAAAAAAAAAAAAAAAAAAAAAAAAAAAAAAAAAAAAAAAAAAAAAAAAAAAAAAAAAAAAAAAAAAAAAAAAAAAAAAAAAAAAAAAAAAAAAAAAAAAAAAAAAAAAAAAAAAAAAAAAAAAAAAAPZYQGAYNJ5l6PJ0m+rZ0hJAlCMY2QWTLwkM325maiRzM9ZyK1I5NslJa7OuoESxa7ZDX9IpxS1rEdCSl92KYzEmdWg=</c2pa:manifest></metadata><defs><clipPath id="a"><path d="M.078 1129H1920v1080.18H.078Zm0 0"></path></clipPath><clipPath id="b"><path d="M3411 290h234.883v227H3411Zm0 0"></path></clipPath><clipPath id="c"><path d="M.078 0H1920v1080H.078Zm0 0"></path></clipPath></defs><path fill="#18328a" d="M2855.719 1575.816c0 3.032-1.02 6.38-3.078 10.059-2.063 3.691-6.121 5.52-12.18 5.52h-86.043c-3.04 0-6.39-1.079-10.07-3.239-3.688-2.172-5.516-6.281-5.516-12.34v-86.054c0-6.059 1.828-10.117 5.516-12.176 3.68-2.059 7.03-3.078 10.07-3.078h86.043c2.809 0 6.059 1.02 9.738 3.078q5.52 3.088 5.52 12.176Zm17.695-148.402c-10.926-5.406-21.914-8.117-32.953-8.117h-86.043c-12.34 0-23.926 2.82-34.746 8.45-10.828 5.628-19.543 13.796-26.145 24.515-6.597 10.718-9.906 23.215-9.906 37.5v86.054c0 14.278 3.309 26.786 9.906 37.504 6.602 10.707 15.317 18.946 26.145 24.676 10.82 5.738 22.406 8.61 34.746 8.61h86.043c14.937 0 27.707-3.583 38.312-10.72 10.61-7.148 18.618-16.128 24.036-26.956 5.41-10.817 8.12-21.856 8.12-33.114v-86.054c0-14.715-3.53-27.434-10.558-38.153-7.039-10.714-16.027-18.773-26.957-24.195m133.386 145.805h101.09v-55.2H3006.8v-27.335c0-8.938 7.24-16.176 16.177-16.176h134.425v-55.211H3020.22c-37.903 0-68.63 30.723-68.63 68.617v158.691h55.212zm-173.808 291.375h-83.086v-40.492h83.086c11.188 0 20.246 9.058 20.246 20.246 0 11.18-9.058 20.246-20.246 20.246m0-76.985h-83.086v-40.504h83.086c11.188 0 20.246 9.07 20.246 20.258 0 11.176-9.058 20.246-20.246 20.246m64.738-63.23c-7.148-10.606-16.125-18.676-26.953-24.195s-21.757-8.278-32.797-8.278H2694.7v227.297h143.28c10.829 0 21.707-2.7 32.637-8.11 10.926-5.417 19.965-13.476 27.113-24.195q10.722-16.072 10.72-38.152c0-16.668-5.848-31.062-17.54-43.191 11.692-12.118 17.54-26.516 17.54-43.184 0-14.715-3.571-27.383-10.72-37.992m190.446 63.231h-83.086v-40.505h83.086c11.187 0 20.254 9.07 20.254 20.258 0 11.176-9.067 20.246-20.254 20.246m66.137 5.937c5.19-9.309 7.789-19.695 7.789-31.176 0-13.207-3.141-25.215-9.418-36.043-6.278-10.828-14.778-19.265-25.485-25.324-10.719-6.059-22.566-9.098-35.566-9.098H2951.41v227.297h55.211v-86.043h42.84c3.031 0 10.629.488 16.36 1.461 5.738.969 11.855 3.2 18.347 6.656 7.578 4.11 13.254 10.118 17.043 18.02q5.69 11.859 5.691 32.312v27.594h55.2v-27.594c0-17.539-2.168-32.574-6.5-45.14q-6.494-18.826-22.075-31.164c8.657-5.2 15.586-12.45 20.785-21.758"></path><g clip-path="url(#a)"><path fill="#18328a" d="M1919.723 2209.18H.078V1129.379h1919.645z"></path></g><path fill="#18328a" d="M2755.246 289.945h-55.187v227.258h55.187zm88.094 212.16c17.418 10.07 36.633 15.098 57.629 15.098h95.363v-55.187h-95.043c-11.035 0-21.047-2.54-30.035-7.63-8.977-5.081-16.066-12.07-21.266-20.945-5.187-8.87-7.789-18.828-7.789-29.867 0-11.035 2.602-20.984 7.79-29.863 5.198-8.879 12.288-15.856 21.265-20.945 8.988-5.082 19-7.63 30.035-7.63h95.043v-55.19h-95.363c-20.996 0-40.211 5.03-57.63 15.097-17.425 10.059-31.163 23.758-41.23 41.062-10.058 17.329-15.097 36.485-15.097 57.47 0 20.995 5.039 40.152 15.097 57.468 10.067 17.316 23.805 31.004 41.23 41.062m253.005-212.16h-55.192v227.258h55.192zM2361.11 446.426c0 3.039-1.028 6.39-3.09 10.07-2.06 3.68-6.11 5.52-12.168 5.52h-86.032c-3.039 0-6.39-1.082-10.07-3.25-3.68-2.16-5.52-6.27-5.52-12.34v-86.031c0-6.051 1.84-10.11 5.52-12.168 3.68-2.063 7.031-3.09 10.07-3.09h86.032c2.812 0 6.058 1.027 9.738 3.09 3.68 2.058 5.52 6.117 5.52 12.168Zm17.687-148.36c-10.93-5.41-21.906-8.12-32.945-8.12h-86.032c-12.34 0-23.918 2.808-34.746 8.437-10.816 5.629-19.535 13.8-26.133 24.515-6.601 10.711-9.898 23.207-9.898 37.497v86.03c0 14.29 3.297 26.786 9.898 37.505 6.598 10.707 15.317 18.945 26.133 24.675 10.828 5.739 22.406 8.598 34.746 8.598h86.032c14.93 0 27.707-3.57 38.304-10.707 10.61-7.148 18.617-16.129 24.024-26.953 5.41-10.82 8.12-21.86 8.12-33.117v-86.031c0-14.72-3.519-27.426-10.55-38.145-7.035-10.719-16.023-18.777-26.953-24.184m133.367 145.77h101.07v-55.2h-101.07v-27.324c0-8.93 7.238-16.175 16.164-16.175h134.418v-55.192H2525.57c-37.894 0-68.61 30.715-68.61 68.61v158.648h55.204zm-173.781 291.328h-83.074v-40.492h83.074c11.18 0 20.246 9.066 20.246 20.246 0 11.176-9.066 20.246-20.246 20.246m0-76.976h-83.074v-40.493h83.074c11.18 0 20.246 9.07 20.246 20.246 0 11.188-9.066 20.246-20.246 20.246m64.73-63.22c-7.148-10.597-16.129-18.663-26.945-24.183q-16.241-8.28-32.793-8.281h-143.266v227.258h143.266c10.816 0 21.695-2.7 32.621-8.106 10.93-5.41 19.969-13.48 27.117-24.195q10.706-16.067 10.707-38.145c0-16.668-5.84-31.054-17.527-43.183 11.687-12.117 17.527-26.504 17.527-43.172 0-14.715-3.57-27.383-10.707-37.992m190.414 63.22h-83.074v-40.493h83.074c11.176 0 20.246 9.07 20.246 20.246 0 11.188-9.07 20.246-20.246 20.246m66.118 5.937c5.187-9.305 7.789-19.695 7.789-31.164 0-13.207-3.141-25.215-9.418-36.043-6.282-10.816-14.77-19.254-25.485-25.324-10.71-6.047-22.558-9.09-35.543-9.09h-140.207v227.258h55.2V703.73h42.831c3.032 0 10.63.489 16.36 1.47 5.738.968 11.855 3.187 18.348 6.648 7.566 4.12 13.246 10.129 17.035 18.015 3.789 7.91 5.687 18.668 5.687 32.305v27.594h55.192v-27.594c0-17.527-2.168-32.563-6.489-45.121-4.34-12.559-11.687-22.945-22.086-31.164q12.986-7.798 20.786-21.758m569.203 125.637h55.203V562.504h-55.203zm-439.016-171.895h67.266c.511 0 .968.34 1.101.828l20.906 71.965h-111.27l20.895-71.965c.141-.488.59-.828 1.102-.828m67.266-54.523h-67.266c-24.957 0-47.023 16.808-53.652 40.875l-29.922 108.578v77.055h54.52v-49.45h125.386v49.45h54.508v-77.055l-29.922-108.578c-6.629-24.067-28.695-40.875-53.652-40.875m529.683 167.98q-5.52-3.24-5.52-12.328V562.504h-55.19v156.492c0 14.277 3.3 26.777 9.898 37.492 6.597 10.719 15.316 18.95 26.136 24.676 10.829 5.738 22.407 8.598 34.743 8.598h114.82v-55.188h-114.82c-3.04 0-6.387-1.082-10.067-3.25"></path><g clip-path="url(#b)"><path fill="#18328a" d="M3495.05 344.836h67.266c.512 0 .961.34 1.09.84l20.907 71.957h-111.27l20.906-71.957c.13-.5.59-.84 1.102-.84m67.266-54.512h-67.265c-24.965 0-47.024 16.809-53.653 40.863l-29.921 108.583v77.054h54.507v-49.449h125.387v49.45h54.52V439.77l-29.922-108.582c-6.63-24.055-28.696-40.864-53.653-40.864"></path></g><path fill="#18328a" d="M3185.707 680.684c-7.039-10.61-16.016-18.618-26.945-24.028-10.926-5.406-21.914-8.117-32.953-8.117h-86.286c-8.468 0-15.336-6.867-15.336-15.336s6.868-15.336 15.336-15.336l144.875-.172v-55.191h-144.625c-11.257 0-22.355 2.71-33.28 8.121-10.93 5.406-19.907 13.465-26.946 24.184-7.04 10.718-10.55 23.437-10.55 38.152 0 14.93 3.57 27.758 10.718 38.465 7.14 10.719 16.168 18.785 27.105 24.195 10.93 5.41 21.914 8.11 32.953 8.11h86.176c8.45 0 15.297 6.847 15.297 15.296v.168c0 8.45-6.848 15.297-15.297 15.297l-145.094.082v55.188h144.954c11.257 0 22.296-2.746 33.113-8.278 10.816-5.52 19.746-13.625 26.785-24.343 7.04-10.72 10.547-23.426 10.547-38.145 0-14.937-3.508-27.703-10.547-38.312m136.253-390.739-.07 156.614c0 10.086-8.175 18.265-18.265 18.265-10.086 0-18.266-8.18-18.266-18.265l-.02-91.454c0-11.039-1.448-22.027-7.128-32.957-5.691-10.925-14.16-19.964-25.418-27.101-11.258-7.14-24.723-10.719-40.41-10.719-15.457 0-28.824 3.52-40.074 10.559-11.258 7.027-19.727 16.004-25.414 26.945q-8.52 16.388-8.52 33.273v162.098h55.102l.14-159.738c0-10 8.106-18.11 18.106-18.11 9.996 0 18.105 8.11 18.105 18.11v91.023c0 11.035 1.77 23.094 7.45 34.032 5.687 10.93 14.097 19.906 25.234 26.945 11.148 7.031 24.558 10.547 40.254 10.547q23.186 0 40.074-10.547c11.246-7.04 19.773-15.965 25.574-26.785 5.797-10.828 8.7-21.864 8.7-33.114v-159.62z"></path><g clip-path="url(#c)"><path fill="#18328a" d="M1919.723 1079.8H.078V0h1919.645z"></path></g></svg>